<svg width="30" height="30" viewBox="0 0 28 25" fill="none" xmlns="http://www.w3.org/2000/svg">
<path fill-rule="evenodd" clip-rule="evenodd" d="M13.9952 9.00025C14.5476 9.00025 14.9954 9.44796 14.9954 10.0002V15.0002C14.9954 15.5525 14.5476 16.0002 13.9952 16.0002C13.4428 16.0002 12.9951 15.5525 12.9951 15.0002V10.0002C12.9951 9.44796 13.4428 9.00025 13.9952 9.00025Z" fill="#00263C"/>
<path fill-rule="evenodd" clip-rule="evenodd" d="M12.4961 0.403095C12.9515 0.139057 13.4686 0 13.995 0C14.5214 0 15.0385 0.139057 15.4939 0.403095C15.9485 0.666686 16.3256 1.04549 16.587 1.50128L16.5883 1.5036L27.588 20.5001C27.8509 20.9553 27.9895 21.4717 27.99 21.9974C27.9905 22.5231 27.8528 23.0397 27.5907 23.4954C27.3286 23.9512 26.9513 24.3301 26.4966 24.5941C26.042 24.8582 25.5259 24.9981 25.0001 25L24.9966 25H2.99339L2.98987 25C2.46408 24.9981 1.94801 24.8582 1.49336 24.5941C1.0387 24.3301 0.661432 23.9512 0.399339 23.4954C0.137247 23.0397 -0.000464641 22.5231 1.17783e-06 21.9974C0.000466937 21.4717 0.139094 20.9553 0.401993 20.5001L11.4017 1.5036L11.403 1.50128C11.6644 1.04549 12.0415 0.666685 12.4961 0.403095ZM12.2697 2.00029L13.1353 2.50132L2.13429 21.5001C2.0468 21.6517 2.00045 21.8241 2.00029 21.9992C2.00014 22.1744 2.04604 22.3466 2.13341 22.4985C2.22077 22.6504 2.34653 22.7767 2.49808 22.8647C2.64924 22.9525 2.82076 22.9992 2.99555 23H24.9944C25.1692 22.9992 25.3408 22.9525 25.4919 22.8647C25.6435 22.7767 25.7692 22.6504 25.8566 22.4985C25.944 22.3466 25.9899 22.1744 25.9897 21.9992C25.9896 21.8242 25.9435 21.6523 25.8561 21.5006L14.8522 2.49699C14.7658 2.34599 14.641 2.22049 14.4905 2.13322C14.3399 2.04594 14.169 1.99997 13.995 1.99997C13.821 1.99997 13.6501 2.04594 13.4995 2.13322C13.349 2.22049 13.2242 2.34598 13.1378 2.49698L12.2697 2.00029Z" fill="#00263C"/>
<path d="M13.9952 21.0001C14.8238 21.0001 15.4954 20.3285 15.4954 19.5001C15.4954 18.6717 14.8238 18.0001 13.9952 18.0001C13.1667 18.0001 12.495 18.6717 12.495 19.5001C12.495 20.3285 13.1667 21.0001 13.9952 21.0001Z" fill="#00263C"/>
</svg>
