<svg xmlns="http://www.w3.org/2000/svg" xmlns:xlink="http://www.w3.org/1999/xlink" width="100" zoomAndPan="magnify" viewBox="0 0 75 74.999997" height="100" preserveAspectRatio="xMidYMid meet" version="1.0"><defs><clipPath id="fe89c52634"><path d="M 0 5.183594 L 75 5.183594 L 75 69.683594 L 0 69.683594 Z M 0 5.183594 " clip-rule="nonzero"/></clipPath><clipPath id="f5a0a423b3"><path d="M 0 16 L 75 16 L 75 69.683594 L 0 69.683594 Z M 0 16 " clip-rule="nonzero"/></clipPath></defs><g clip-path="url(#fe89c52634)"><path fill="#f9a429" d="M 72.558594 65.609375 L 69.597656 65.609375 L 69.605469 57.613281 L 71.832031 57.613281 L 71.832031 57.496094 L 69.605469 57.496094 L 69.605469 49.007812 L 71.832031 49.007812 L 71.832031 48.886719 L 69.605469 48.886719 L 69.613281 40.402344 L 71.832031 40.402344 L 71.832031 40.28125 L 69.613281 40.28125 L 69.617188 31.792969 L 71.832031 31.792969 L 71.832031 31.671875 L 69.617188 31.671875 L 69.617188 31.351562 L 73.726562 27.753906 L 74.316406 28.34375 C 74.425781 28.453125 74.617188 28.375 74.617188 28.21875 L 74.617188 26.707031 C 74.617188 26.613281 74.535156 26.535156 74.441406 26.535156 L 72.925781 26.535156 C 72.769531 26.535156 72.695312 26.722656 72.804688 26.832031 L 73.382812 27.410156 L 69.617188 30.710938 L 69.621094 23.1875 L 71.832031 23.1875 L 71.832031 23.066406 L 69.621094 23.066406 L 69.625 18.363281 L 66.410156 18.363281 L 66.410156 14.578125 L 71.832031 14.578125 L 71.832031 14.457031 L 66.410156 14.457031 L 66.410156 12.851562 C 67.710938 12.015625 68.464844 10.46875 68.203125 8.847656 C 67.851562 6.667969 65.796875 5.183594 63.609375 5.53125 C 61.425781 5.882812 59.9375 7.9375 60.289062 10.117188 C 60.640625 12.296875 62.699219 13.78125 64.882812 13.429688 C 65.394531 13.347656 65.867188 13.171875 66.289062 12.925781 L 66.289062 14.457031 L 56.871094 14.457031 L 56.871094 7.65625 L 56.75 7.65625 L 56.75 14.457031 L 47.335938 14.457031 L 47.335938 7.65625 L 47.214844 7.65625 L 47.214844 14.457031 L 41.832031 14.457031 C 41.292969 13.597656 40.257812 13.125 39.207031 13.351562 C 38.628906 13.472656 38.140625 13.785156 37.796875 14.210938 L 37.796875 7.65625 L 37.675781 7.65625 L 37.675781 14.371094 C 37.65625 14.398438 37.636719 14.429688 37.617188 14.457031 L 28.257812 14.457031 L 28.257812 7.65625 L 28.136719 7.65625 L 28.136719 14.457031 L 18.722656 14.457031 L 18.722656 7.65625 L 18.601562 7.65625 L 18.601562 14.457031 L 9.183594 14.457031 L 9.183594 7.65625 L 9.0625 7.65625 L 9.0625 14.457031 L 3.640625 14.457031 L 3.640625 14.578125 L 9.0625 14.578125 L 9.0625 23.066406 L 3.640625 23.066406 L 3.640625 23.1875 L 9.0625 23.1875 L 9.0625 28.015625 L 5.425781 26.28125 C 5.304688 26.226562 5.160156 26.273438 5.101562 26.394531 C 5.042969 26.515625 5.097656 26.660156 5.214844 26.714844 L 9.0625 28.550781 L 9.0625 31.671875 L 3.640625 31.671875 L 3.640625 31.792969 L 9.0625 31.792969 L 9.0625 40.28125 L 3.640625 40.28125 L 3.640625 40.402344 L 9.0625 40.402344 L 9.0625 48.886719 L 3.640625 48.886719 L 3.640625 49.007812 L 9.0625 49.007812 L 9.0625 49.566406 C 8.808594 49.503906 8.542969 49.46875 8.273438 49.46875 C 6.480469 49.46875 5.027344 50.917969 5.027344 52.707031 C 5.027344 54.496094 6.480469 55.945312 8.273438 55.945312 C 8.542969 55.945312 8.808594 55.914062 9.0625 55.851562 L 9.0625 57.496094 L 3.640625 57.496094 L 3.640625 57.613281 L 9.0625 57.613281 L 9.0625 58.632812 L 5.34375 58.632812 L 5.324219 64.765625 L 2.445312 65.609375 L 0.0273438 69.675781 L 74.972656 69.675781 Z M 5.320312 65.609375 L 4.386719 65.609375 L 5.320312 65.332031 Z M 18.722656 22.621094 L 23.097656 18.261719 L 27.40625 21.167969 C 26 21.46875 24.417969 22.078125 23.621094 22.628906 C 23.515625 22.703125 23.515625 22.816406 23.636719 22.855469 C 23.855469 22.929688 24.082031 22.980469 24.324219 22.960938 L 24.207031 23.066406 L 18.722656 23.066406 Z M 14.625 57.511719 C 14.578125 57.507812 14.535156 57.5 14.496094 57.496094 C 14.535156 57.5 14.578125 57.503906 14.625 57.511719 Z M 23.914062 40.011719 C 23.84375 40.019531 23.777344 40.035156 23.710938 40.054688 C 23.652344 39.835938 23.597656 39.613281 23.535156 39.390625 C 23.488281 39.210938 23.4375 39.03125 23.386719 38.851562 C 23.953125 38.210938 24.453125 37.585938 24.84375 36.890625 C 24.859375 37.089844 24.875 37.289062 24.890625 37.484375 C 24.941406 38.097656 24.996094 38.707031 25.070312 39.316406 L 25.105469 39.871094 Z M 18.722656 23.1875 L 24.070312 23.1875 L 23.792969 23.503906 C 23.21875 23.972656 23.257812 24.421875 23.65625 24.546875 C 23.832031 24.601562 24.058594 24.683594 24.355469 24.675781 C 24.640625 26.003906 25.035156 27.273438 25.78125 28.328125 C 26.003906 28.636719 26.378906 28.792969 26.753906 28.730469 C 26.765625 28.730469 26.777344 28.730469 26.789062 28.726562 L 26.613281 28.828125 C 25.40625 29.511719 24.398438 30.496094 23.683594 31.671875 L 18.722656 31.671875 Z M 18.722656 31.792969 L 23.613281 31.792969 C 23.515625 31.960938 23.425781 32.128906 23.339844 32.300781 L 21.179688 36.699219 L 21.210938 36.765625 L 18.722656 36.765625 Z M 18.601562 23.066406 L 18.273438 23.066406 L 18.601562 22.742188 Z M 9.183594 14.578125 L 18.601562 14.578125 L 18.601562 22.058594 L 17.589844 23.066406 L 9.183594 23.066406 Z M 9.183594 23.1875 L 17.46875 23.1875 L 11.46875 29.164062 L 9.183594 28.074219 Z M 9.183594 28.609375 L 11.414062 29.671875 C 11.445312 29.6875 11.480469 29.695312 11.515625 29.695312 C 11.582031 29.695312 11.640625 29.667969 11.6875 29.625 L 18.15625 23.1875 L 18.601562 23.1875 L 18.601562 31.671875 L 9.183594 31.671875 Z M 9.183594 31.792969 L 18.601562 31.792969 L 18.601562 36.765625 L 14.175781 36.765625 C 14.105469 36.765625 14.050781 36.835938 14.070312 36.902344 L 14.988281 40.28125 L 9.183594 40.28125 Z M 9.183594 40.402344 L 15.019531 40.402344 L 15.742188 43.074219 C 15.757812 43.121094 15.796875 43.152344 15.847656 43.152344 L 17.550781 43.152344 L 16.5625 43.597656 C 15.851562 43.914062 15.328125 44.53125 15.125 45.28125 L 14.152344 48.886719 L 9.183594 48.886719 Z M 9.183594 55.816406 C 10.53125 55.425781 11.515625 54.179688 11.515625 52.707031 C 11.515625 51.234375 10.53125 49.992188 9.183594 49.597656 L 9.183594 49.007812 L 14.117188 49.007812 L 12.320312 55.65625 L 12.835938 55.707031 C 12.734375 55.933594 12.585938 56.136719 12.402344 56.304688 L 11.324219 57.285156 C 11.257812 57.347656 11.207031 57.417969 11.175781 57.496094 L 9.183594 57.496094 Z M 14.804688 65.609375 L 12.691406 65.609375 L 12.699219 63.140625 L 14.808594 62.515625 Z M 14.808594 61.988281 L 12.703125 62.605469 L 12.714844 58.632812 L 9.183594 58.632812 L 9.183594 57.613281 L 11.136719 57.613281 C 11.128906 57.648438 11.125 57.683594 11.125 57.71875 C 11.121094 57.753906 11.125 57.785156 11.128906 57.820312 C 11.125 57.820312 11.125 57.820312 11.121094 57.820312 C 11.125 57.820312 11.125 57.820312 11.128906 57.824219 C 11.132812 57.847656 11.136719 57.871094 11.144531 57.894531 C 11.144531 57.90625 11.148438 57.914062 11.152344 57.925781 C 11.15625 57.945312 11.164062 57.964844 11.171875 57.984375 C 11.179688 58 11.183594 58.011719 11.191406 58.027344 C 11.199219 58.042969 11.207031 58.058594 11.21875 58.074219 C 11.234375 58.101562 11.253906 58.128906 11.273438 58.152344 C 11.28125 58.160156 11.292969 58.167969 11.300781 58.175781 C 11.316406 58.195312 11.335938 58.210938 11.355469 58.226562 C 11.363281 58.238281 11.375 58.242188 11.386719 58.25 C 11.40625 58.265625 11.429688 58.28125 11.453125 58.292969 C 11.460938 58.296875 11.472656 58.304688 11.484375 58.308594 C 11.519531 58.324219 11.554688 58.335938 11.59375 58.347656 C 12.101562 58.472656 12.722656 58.472656 13.332031 58.328125 C 13.625 58.257812 13.894531 58.121094 14.121094 57.929688 L 14.5 57.613281 L 14.816406 57.613281 L 14.816406 58.023438 C 14.609375 58.289062 14.375 58.53125 14.117188 58.75 L 13.429688 59.332031 C 13.195312 59.53125 13.121094 59.820312 13.179688 60.082031 C 13.238281 60.34375 13.433594 60.574219 13.734375 60.644531 C 14.046875 60.714844 14.414062 60.734375 14.8125 60.6875 Z M 24.289062 65.609375 L 22.179688 65.609375 L 22.1875 59.585938 L 23.789062 57.613281 L 24.296875 57.613281 Z M 22.191406 58.816406 L 22.191406 57.613281 L 23.167969 57.613281 Z M 24.296875 57.496094 L 23.886719 57.496094 L 24.296875 56.988281 Z M 24.300781 56.222656 L 23.265625 57.496094 L 22.191406 57.496094 L 22.203125 51.726562 L 22.050781 51.726562 L 23.28125 49.007812 L 24.308594 49.007812 Z M 24.308594 48.886719 L 23.335938 48.886719 L 23.582031 48.335938 C 23.699219 48.082031 23.933594 47.902344 24.210938 47.847656 C 24.242188 47.84375 24.277344 47.835938 24.308594 47.828125 Z M 28.136719 21.039062 C 28.117188 21.039062 28.101562 21.039062 28.082031 21.042969 L 23.203125 17.753906 C 23.109375 17.6875 22.980469 17.699219 22.898438 17.78125 L 18.722656 21.941406 L 18.722656 14.578125 L 28.136719 14.578125 Z M 33.773438 65.609375 L 31.664062 65.609375 L 31.671875 57.613281 L 33.78125 57.613281 Z M 33.78125 57.496094 L 31.671875 57.496094 L 31.679688 49.871094 L 33.785156 50.136719 Z M 33.785156 49.648438 L 31.679688 49.386719 L 31.679688 49.007812 L 33.785156 49.007812 Z M 33.785156 48.886719 L 31.679688 48.886719 L 31.683594 45.550781 C 31.988281 45.378906 32.21875 45.101562 32.34375 44.773438 C 32.761719 43.644531 32.863281 42.449219 32.515625 41.160156 L 32.628906 40.402344 L 33.792969 40.402344 Z M 37.675781 35.664062 L 33.796875 35.664062 L 33.792969 40.28125 L 32.648438 40.28125 L 33.171875 36.839844 C 33.207031 36.761719 33.246094 36.6875 33.277344 36.609375 C 33.269531 36.625 33.261719 36.636719 33.253906 36.652344 C 33.785156 35.632812 34.253906 34.601562 34.640625 33.558594 C 34.847656 32.992188 34.914062 32.386719 34.824219 31.792969 L 37.675781 31.792969 Z M 37.675781 31.671875 L 34.800781 31.671875 C 34.777344 31.535156 34.742188 31.398438 34.699219 31.265625 C 34.695312 31.253906 34.691406 31.246094 34.691406 31.238281 C 34.429688 30.441406 33.925781 29.746094 33.234375 29.269531 C 32.378906 28.675781 31.40625 28.242188 30.4375 27.882812 L 29.792969 26.59375 C 29.761719 26.535156 29.773438 26.46875 29.8125 26.417969 C 30.035156 26.128906 30.148438 25.859375 30.191406 25.617188 C 30.457031 25.070312 30.429688 24.070312 30.210938 23.1875 L 30.398438 23.1875 L 37.675781 28.09375 Z M 30.171875 23.035156 L 30.21875 23.066406 L 30.179688 23.066406 C 30.179688 23.054688 30.175781 23.046875 30.171875 23.035156 Z M 37.675781 27.515625 L 31.257812 23.1875 L 37.675781 23.1875 Z M 37.675781 23.066406 L 31.078125 23.066406 L 29.898438 22.269531 L 29.894531 22.269531 C 29.785156 22.035156 29.660156 21.835938 29.519531 21.695312 C 29.164062 21.328125 28.746094 21.035156 28.257812 21.03125 L 28.257812 14.578125 L 37.546875 14.578125 C 37.269531 15.082031 37.164062 15.6875 37.292969 16.292969 C 37.363281 16.625 37.496094 16.925781 37.675781 17.1875 Z M 43.257812 65.609375 L 41.144531 65.609375 L 41.152344 57.613281 L 43.261719 57.613281 Z M 43.261719 57.496094 L 41.152344 57.496094 L 41.160156 49.007812 L 43.269531 49.007812 Z M 43.269531 48.886719 L 41.160156 48.886719 L 41.160156 48.816406 L 43.269531 45.46875 Z M 43.269531 44.5625 L 41.160156 47.90625 L 41.167969 40.402344 L 43.273438 40.402344 Z M 43.273438 40.28125 L 41.167969 40.28125 L 41.171875 35.664062 L 37.796875 35.664062 L 37.796875 31.792969 L 43.277344 31.792969 Z M 43.277344 31.671875 L 37.796875 31.671875 L 37.796875 28.175781 L 38.742188 28.8125 C 38.835938 28.878906 38.960938 28.867188 39.042969 28.785156 L 43.28125 24.578125 Z M 43.28125 23.898438 L 38.84375 28.304688 L 37.796875 27.597656 L 37.796875 23.1875 L 43.28125 23.1875 Z M 47.214844 22.8125 L 45.058594 22.8125 L 47.214844 20.675781 Z M 47.214844 19.996094 L 44.375 22.8125 L 43.28125 22.8125 L 43.28125 23.066406 L 37.796875 23.066406 L 37.796875 17.347656 C 38.367188 18.042969 39.300781 18.40625 40.242188 18.203125 C 41.585938 17.917969 42.445312 16.601562 42.15625 15.261719 C 42.105469 15.015625 42.019531 14.789062 41.902344 14.578125 L 47.214844 14.578125 Z M 52.742188 65.609375 L 50.628906 65.609375 L 50.636719 57.613281 L 52.746094 57.613281 Z M 52.75 57.496094 L 50.636719 57.496094 L 50.640625 49.007812 L 52.753906 49.007812 Z M 52.753906 48.886719 L 50.640625 48.886719 L 50.644531 40.402344 L 52.761719 40.402344 Z M 52.761719 40.28125 L 50.644531 40.28125 L 50.644531 39.257812 L 52.761719 40.078125 Z M 52.761719 39.5625 L 50.648438 38.742188 L 50.648438 31.792969 L 52.765625 31.792969 Z M 56.75 31.164062 L 52.765625 31.164062 L 52.765625 31.671875 L 50.648438 31.671875 L 50.65625 23.1875 L 56.75 23.1875 Z M 56.75 23.066406 L 50.65625 23.066406 L 50.65625 22.8125 L 47.335938 22.8125 L 47.335938 20.554688 L 50.667969 17.246094 L 56.75 22.3125 Z M 56.75 15.3125 C 55.6875 15.304688 54.761719 16.097656 54.628906 17.175781 C 54.488281 18.339844 55.316406 19.394531 56.480469 19.535156 C 56.574219 19.546875 56.664062 19.550781 56.75 19.550781 L 56.75 21.6875 L 50.808594 16.734375 C 50.714844 16.652344 50.574219 16.660156 50.484375 16.75 L 47.335938 19.875 L 47.335938 14.578125 L 56.75 14.578125 Z M 56.871094 22.414062 L 57.652344 23.066406 L 56.871094 23.066406 Z M 62.226562 65.609375 L 60.113281 65.609375 L 60.121094 57.613281 L 62.230469 57.613281 Z M 62.230469 57.496094 L 60.121094 57.496094 L 60.125 49.007812 L 62.234375 49.007812 Z M 62.234375 48.886719 L 60.125 48.886719 L 60.132812 40.402344 L 62.238281 40.402344 Z M 62.238281 40.28125 L 60.132812 40.28125 L 60.132812 39.664062 L 62.242188 37.816406 Z M 62.242188 37.175781 L 60.132812 39.023438 L 60.140625 31.792969 L 62.242188 31.792969 Z M 62.242188 31.671875 L 60.140625 31.671875 L 60.140625 31.164062 L 56.871094 31.164062 L 56.871094 23.1875 L 57.796875 23.1875 L 60.9375 25.804688 C 61.019531 25.871094 61.136719 25.878906 61.226562 25.820312 L 62.246094 25.160156 Z M 62.246094 24.585938 L 61.109375 25.320312 L 58.550781 23.1875 L 62.246094 23.1875 Z M 66.289062 18.363281 L 62.25 18.363281 L 62.25 23.066406 L 58.40625 23.066406 L 56.871094 21.789062 L 56.871094 19.546875 C 57.871094 19.484375 58.71875 18.71875 58.84375 17.691406 C 58.984375 16.527344 58.15625 15.472656 56.992188 15.332031 C 56.953125 15.324219 56.910156 15.320312 56.871094 15.320312 L 56.871094 14.578125 L 66.289062 14.578125 Z M 66.289062 18.363281 " fill-opacity="1" fill-rule="nonzero"/></g><path fill="#fc5e39" d="M 5.320312 65.332031 L 12.699219 63.140625 L 12.691406 65.609375 L 5.320312 65.609375 Z M 5.324219 64.765625 L 12.703125 62.605469 L 12.714844 58.632812 L 5.34375 58.632812 Z M 15.144531 57.558594 C 15.023438 57.550781 14.914062 57.542969 14.816406 57.53125 L 14.816406 58.023438 C 14.921875 57.894531 15.019531 57.757812 15.109375 57.613281 C 15.121094 57.59375 15.132812 57.578125 15.144531 57.558594 Z M 21.324219 60.582031 L 14.808594 62.515625 L 14.804688 65.609375 L 22.179688 65.609375 L 22.1875 59.585938 L 21.445312 60.503906 C 21.414062 60.539062 21.371094 60.566406 21.324219 60.582031 Z M 19.445312 57.496094 L 19.390625 57.613281 L 18.722656 57.613281 L 18.722656 57.695312 C 18.683594 57.695312 18.640625 57.691406 18.601562 57.691406 L 18.601562 57.613281 L 16.261719 57.613281 C 16.890625 57.640625 17.570312 57.660156 18.128906 57.675781 C 18.140625 57.675781 18.152344 57.679688 18.164062 57.679688 C 18.292969 57.683594 18.414062 57.6875 18.527344 57.6875 C 18.421875 58.335938 17.808594 58.761719 17.410156 58.976562 C 17.152344 59.117188 16.914062 59.289062 16.703125 59.496094 L 16.007812 60.191406 C 15.796875 60.402344 15.527344 60.550781 15.234375 60.617188 C 15.089844 60.652344 14.949219 60.671875 14.8125 60.6875 L 14.808594 61.988281 L 21.117188 60.140625 L 22.191406 58.816406 L 22.191406 57.496094 L 22.203125 51.726562 L 22.050781 51.726562 Z M 24.296875 56.988281 L 24.296875 57.613281 L 24.289062 65.609375 L 31.664062 65.609375 L 31.671875 57.613281 L 31.671875 57.496094 L 31.679688 49.871094 L 30.226562 49.691406 Z M 28.257812 46.875 C 28.21875 46.886719 28.179688 46.898438 28.136719 46.910156 C 26.917969 47.277344 25.636719 47.578125 24.308594 47.828125 L 24.308594 49.007812 L 24.300781 56.222656 L 29.933594 49.28125 C 29.988281 49.21875 30.070312 49.1875 30.152344 49.195312 L 31.679688 49.386719 L 31.679688 48.886719 L 31.683594 45.550781 C 31.648438 45.574219 31.613281 45.59375 31.574219 45.609375 C 30.535156 46.101562 29.425781 46.519531 28.257812 46.875 Z M 39.695312 50.875 L 33.785156 50.136719 L 33.78125 57.496094 L 33.78125 57.613281 L 33.773438 65.609375 L 41.144531 65.609375 L 41.152344 57.613281 L 41.152344 57.496094 L 41.160156 49.007812 L 41.160156 48.816406 L 39.929688 50.765625 C 39.878906 50.84375 39.789062 50.886719 39.695312 50.875 Z M 33.792969 40.28125 L 33.792969 40.402344 L 33.785156 48.886719 L 33.785156 49.648438 L 39.601562 50.378906 L 41.160156 47.910156 L 41.160156 47.90625 L 41.167969 40.402344 L 41.167969 40.28125 L 41.171875 35.664062 L 33.796875 35.664062 Z M 43.269531 45.46875 L 43.269531 49.007812 L 43.261719 57.496094 L 43.261719 57.613281 L 43.257812 65.609375 L 50.628906 65.609375 L 50.636719 57.613281 L 50.636719 57.496094 L 50.640625 49.007812 L 50.640625 48.886719 L 50.644531 40.402344 L 50.644531 39.257812 L 47.867188 38.175781 Z M 43.28125 24.578125 L 43.277344 31.671875 L 43.277344 31.792969 L 43.273438 40.28125 L 43.273438 40.402344 L 43.269531 44.5625 L 47.5625 37.753906 C 47.625 37.65625 47.75 37.613281 47.855469 37.65625 L 50.648438 38.742188 L 50.648438 31.671875 L 50.65625 23.1875 L 50.65625 22.8125 L 43.28125 22.8125 Z M 57.40625 41.878906 L 52.761719 40.078125 L 52.761719 40.402344 L 52.753906 48.886719 L 52.753906 49.007812 L 52.75 57.496094 L 52.746094 57.613281 L 52.742188 65.609375 L 60.113281 65.609375 L 60.121094 57.613281 L 60.121094 57.496094 L 60.125 49.007812 L 60.125 48.886719 L 60.132812 40.402344 L 60.132812 39.664062 L 57.652344 41.835938 C 57.582031 41.898438 57.488281 41.914062 57.40625 41.878906 Z M 52.765625 31.792969 L 52.761719 39.5625 L 57.441406 41.378906 L 60.132812 39.023438 L 60.140625 31.792969 L 60.140625 31.164062 L 52.765625 31.164062 Z M 62.25 18.363281 L 62.25 23.066406 L 62.246094 23.1875 L 62.246094 25.160156 L 62.242188 31.671875 L 62.242188 37.175781 L 69.617188 30.710938 L 69.621094 23.1875 L 69.621094 23.066406 L 69.625 18.363281 Z M 62.238281 40.28125 L 62.238281 40.402344 L 62.234375 48.886719 L 62.234375 49.007812 L 62.230469 57.496094 L 62.230469 57.613281 L 62.226562 65.609375 L 69.597656 65.609375 L 69.605469 57.613281 L 69.605469 48.886719 L 69.613281 40.402344 L 69.613281 40.28125 L 69.617188 31.792969 L 69.617188 31.351562 L 62.242188 37.816406 Z M 62.925781 8.875 C 62.902344 8.730469 62.914062 8.558594 62.96875 8.371094 C 63.019531 8.179688 63.109375 8.007812 63.234375 7.851562 C 63.363281 7.699219 63.519531 7.585938 63.710938 7.511719 L 63.683594 7.34375 C 63.683594 7.28125 63.699219 7.230469 63.734375 7.191406 C 63.769531 7.148438 63.8125 7.125 63.859375 7.117188 C 63.960938 7.101562 64.039062 7.148438 64.09375 7.257812 L 64.121094 7.429688 C 64.382812 7.40625 64.621094 7.445312 64.835938 7.542969 C 65.050781 7.640625 65.203125 7.785156 65.296875 7.976562 C 65.304688 8.070312 65.277344 8.144531 65.214844 8.195312 C 65.1875 8.214844 65.15625 8.230469 65.113281 8.234375 C 65.03125 8.25 64.960938 8.210938 64.902344 8.121094 C 64.816406 7.921875 64.601562 7.828125 64.25 7.847656 L 64.277344 8.011719 L 64.441406 9.273438 C 65.171875 9.417969 65.585938 9.800781 65.683594 10.425781 C 65.734375 10.726562 65.648438 10.964844 65.425781 11.132812 C 65.203125 11.300781 64.949219 11.40625 64.664062 11.453125 L 64.6875 11.597656 C 64.695312 11.667969 64.679688 11.726562 64.640625 11.777344 C 64.605469 11.828125 64.5625 11.859375 64.511719 11.867188 C 64.394531 11.886719 64.316406 11.824219 64.273438 11.683594 L 64.246094 11.511719 C 64 11.484375 63.769531 11.417969 63.550781 11.304688 C 63.332031 11.195312 63.210938 11.066406 63.1875 10.921875 C 63.175781 10.859375 63.1875 10.804688 63.214844 10.761719 C 63.246094 10.714844 63.285156 10.6875 63.335938 10.679688 C 63.386719 10.671875 63.464844 10.699219 63.566406 10.761719 C 63.570312 10.765625 63.609375 10.789062 63.683594 10.839844 C 63.917969 10.992188 64.09375 11.082031 64.210938 11.101562 C 64.195312 10.90625 64.167969 10.667969 64.125 10.382812 C 64.082031 10.097656 64.054688 9.84375 64.046875 9.617188 C 63.535156 9.511719 63.203125 9.375 63.054688 9.207031 C 62.992188 9.132812 62.949219 9.023438 62.925781 8.875 Z M 64.460938 9.722656 C 64.46875 9.847656 64.488281 10.03125 64.519531 10.273438 C 64.554688 10.515625 64.589844 10.792969 64.625 11.105469 C 65.09375 10.992188 65.304688 10.8125 65.265625 10.566406 C 65.226562 10.316406 65.144531 10.132812 65.023438 10.011719 C 64.902344 9.890625 64.714844 9.792969 64.460938 9.722656 Z M 63.347656 8.835938 C 63.386719 9.011719 63.613281 9.128906 64.019531 9.191406 L 63.9375 8.691406 L 63.871094 8.144531 C 63.851562 8.035156 63.839844 7.964844 63.828125 7.933594 C 63.664062 8.007812 63.535156 8.132812 63.445312 8.316406 C 63.351562 8.496094 63.320312 8.671875 63.347656 8.835938 Z M 56.113281 18.257812 C 56.019531 18.171875 55.976562 18.085938 55.984375 18.011719 C 55.988281 17.976562 56.003906 17.953125 56.023438 17.933594 C 56.046875 17.914062 56.070312 17.90625 56.097656 17.910156 C 56.125 17.914062 56.160156 17.9375 56.203125 17.984375 C 56.203125 17.988281 56.21875 18.007812 56.25 18.042969 C 56.347656 18.15625 56.425781 18.226562 56.480469 18.253906 C 56.5 18.152344 56.523438 18.023438 56.542969 17.875 C 56.5625 17.722656 56.585938 17.589844 56.613281 17.472656 C 56.371094 17.34375 56.222656 17.226562 56.167969 17.117188 C 56.148438 17.070312 56.144531 17.011719 56.152344 16.929688 C 56.164062 16.851562 56.195312 16.769531 56.25 16.679688 C 56.304688 16.589844 56.375 16.515625 56.460938 16.457031 C 56.546875 16.394531 56.644531 16.363281 56.753906 16.351562 L 56.765625 16.261719 C 56.773438 16.230469 56.789062 16.207031 56.8125 16.191406 C 56.835938 16.175781 56.859375 16.171875 56.886719 16.171875 C 56.941406 16.179688 56.972656 16.214844 56.984375 16.28125 L 56.972656 16.371094 C 57.109375 16.398438 57.226562 16.453125 57.320312 16.53125 C 57.414062 16.613281 57.472656 16.710938 57.492188 16.820312 C 57.480469 16.871094 57.457031 16.902344 57.417969 16.921875 C 57.402344 16.925781 57.382812 16.929688 57.363281 16.925781 C 57.316406 16.921875 57.285156 16.890625 57.269531 16.835938 C 57.257812 16.722656 57.160156 16.644531 56.980469 16.601562 L 56.96875 16.6875 L 56.867188 17.355469 C 57.214844 17.535156 57.371094 17.792969 57.328125 18.125 C 57.308594 18.285156 57.230469 18.390625 57.09375 18.445312 C 56.957031 18.5 56.8125 18.515625 56.660156 18.496094 L 56.648438 18.574219 C 56.644531 18.609375 56.625 18.640625 56.601562 18.660156 C 56.574219 18.679688 56.546875 18.6875 56.523438 18.6875 C 56.460938 18.679688 56.425781 18.636719 56.425781 18.558594 L 56.4375 18.464844 C 56.316406 18.417969 56.210938 18.347656 56.113281 18.257812 Z M 56.691406 18.316406 C 56.945312 18.324219 57.082031 18.265625 57.097656 18.132812 C 57.113281 18 57.097656 17.894531 57.054688 17.816406 C 57.011719 17.738281 56.929688 17.660156 56.808594 17.585938 C 56.796875 17.652344 56.777344 17.746094 56.757812 17.875 C 56.742188 18.003906 56.71875 18.148438 56.691406 18.316406 Z M 56.664062 17.253906 L 56.695312 16.984375 L 56.742188 16.699219 C 56.75 16.640625 56.75 16.601562 56.75 16.585938 C 56.65625 16.597656 56.574219 16.644531 56.5 16.722656 C 56.425781 16.800781 56.382812 16.886719 56.375 16.972656 C 56.367188 17.066406 56.464844 17.160156 56.664062 17.253906 Z M 38.886719 15.441406 C 38.867188 15.351562 38.871094 15.246094 38.898438 15.128906 C 38.925781 15.007812 38.972656 14.898438 39.046875 14.796875 C 39.121094 14.699219 39.214844 14.625 39.332031 14.574219 L 39.308594 14.46875 C 39.304688 14.429688 39.316406 14.398438 39.335938 14.371094 C 39.355469 14.347656 39.382812 14.328125 39.410156 14.324219 C 39.472656 14.308594 39.523438 14.335938 39.558594 14.402344 L 39.582031 14.507812 C 39.742188 14.488281 39.894531 14.503906 40.027344 14.558594 C 40.164062 14.609375 40.265625 14.695312 40.328125 14.8125 C 40.335938 14.871094 40.320312 14.914062 40.285156 14.949219 C 40.269531 14.964844 40.25 14.972656 40.222656 14.976562 C 40.171875 14.988281 40.125 14.96875 40.089844 14.914062 C 40.03125 14.792969 39.890625 14.742188 39.675781 14.765625 L 39.699219 14.863281 L 39.839844 15.640625 C 40.296875 15.707031 40.5625 15.933594 40.644531 16.316406 C 40.6875 16.503906 40.640625 16.652344 40.507812 16.761719 C 40.375 16.875 40.222656 16.949219 40.046875 16.984375 L 40.0625 17.074219 C 40.070312 17.117188 40.0625 17.15625 40.042969 17.1875 C 40.019531 17.21875 39.996094 17.242188 39.964844 17.246094 C 39.894531 17.261719 39.839844 17.226562 39.808594 17.140625 L 39.789062 17.035156 C 39.636719 17.027344 39.488281 16.992188 39.351562 16.929688 C 39.210938 16.867188 39.132812 16.789062 39.113281 16.703125 C 39.105469 16.664062 39.109375 16.632812 39.125 16.601562 C 39.144531 16.570312 39.167969 16.554688 39.199219 16.546875 C 39.230469 16.539062 39.277344 16.554688 39.34375 16.589844 C 39.34375 16.59375 39.371094 16.609375 39.417969 16.636719 C 39.570312 16.722656 39.679688 16.773438 39.753906 16.78125 C 39.738281 16.660156 39.710938 16.515625 39.675781 16.339844 C 39.644531 16.164062 39.617188 16.007812 39.605469 15.867188 C 39.285156 15.816406 39.074219 15.742188 38.976562 15.644531 C 38.9375 15.601562 38.90625 15.53125 38.886719 15.441406 Z M 39.863281 15.921875 C 39.871094 15.996094 39.890625 16.109375 39.917969 16.257812 C 39.945312 16.40625 39.976562 16.578125 40.011719 16.769531 C 40.296875 16.6875 40.421875 16.570312 40.390625 16.417969 C 40.359375 16.265625 40.300781 16.152344 40.222656 16.082031 C 40.144531 16.007812 40.023438 15.957031 39.863281 15.921875 Z M 39.148438 15.40625 C 39.179688 15.511719 39.320312 15.578125 39.574219 15.605469 L 39.507812 15.296875 L 39.449219 14.960938 C 39.433594 14.894531 39.425781 14.851562 39.417969 14.832031 C 39.316406 14.878906 39.242188 14.964844 39.191406 15.078125 C 39.140625 15.195312 39.125 15.304688 39.148438 15.40625 Z M 7.238281 53.722656 C 7.238281 53.671875 7.253906 53.632812 7.285156 53.597656 C 7.3125 53.566406 7.347656 53.546875 7.390625 53.546875 C 7.433594 53.546875 7.488281 53.578125 7.5625 53.640625 C 7.566406 53.644531 7.59375 53.671875 7.644531 53.722656 C 7.816406 53.875 7.945312 53.964844 8.035156 54 C 8.046875 53.839844 8.054688 53.644531 8.058594 53.410156 C 8.0625 53.179688 8.074219 52.972656 8.09375 52.789062 C 7.699219 52.640625 7.453125 52.488281 7.351562 52.332031 C 7.3125 52.269531 7.292969 52.175781 7.292969 52.054688 C 7.292969 51.933594 7.328125 51.800781 7.394531 51.65625 C 7.460938 51.507812 7.554688 51.382812 7.671875 51.277344 C 7.792969 51.167969 7.9375 51.097656 8.097656 51.066406 L 8.097656 50.925781 C 8.105469 50.875 8.125 50.835938 8.15625 50.808594 C 8.191406 50.78125 8.226562 50.765625 8.265625 50.765625 C 8.351562 50.765625 8.40625 50.816406 8.4375 50.910156 L 8.4375 51.050781 C 8.648438 51.066406 8.832031 51.128906 8.992188 51.234375 C 9.152344 51.339844 9.253906 51.476562 9.304688 51.640625 C 9.296875 51.714844 9.265625 51.769531 9.210938 51.804688 C 9.1875 51.816406 9.160156 51.824219 9.125 51.824219 C 9.058594 51.824219 9.003906 51.785156 8.972656 51.703125 C 8.929688 51.53125 8.765625 51.433594 8.484375 51.402344 L 8.484375 51.535156 L 8.457031 52.566406 C 9.019531 52.773438 9.300781 53.136719 9.300781 53.648438 C 9.300781 53.894531 9.199219 54.070312 9.003906 54.179688 C 8.804688 54.285156 8.585938 54.335938 8.351562 54.335938 L 8.351562 54.457031 C 8.347656 54.511719 8.328125 54.558594 8.292969 54.59375 C 8.253906 54.628906 8.21875 54.648438 8.179688 54.648438 C 8.082031 54.648438 8.027344 54.589844 8.007812 54.46875 L 8.007812 54.332031 C 7.816406 54.277344 7.640625 54.195312 7.480469 54.074219 C 7.320312 53.957031 7.238281 53.839844 7.238281 53.722656 Z M 8.367188 54.054688 C 8.753906 54.023438 8.949219 53.90625 8.949219 53.703125 C 8.949219 53.5 8.90625 53.34375 8.824219 53.230469 C 8.746094 53.117188 8.605469 53.019531 8.410156 52.929688 C 8.402344 53.027344 8.394531 53.175781 8.390625 53.375 C 8.382812 53.574219 8.375 53.800781 8.367188 54.054688 Z M 8.128906 52.449219 L 8.128906 52.035156 L 8.144531 51.589844 C 8.144531 51.5 8.140625 51.445312 8.136719 51.417969 C 7.996094 51.453125 7.875 51.539062 7.78125 51.671875 C 7.683594 51.804688 7.636719 51.941406 7.636719 52.074219 C 7.644531 52.222656 7.808594 52.34375 8.128906 52.449219 Z M 8.128906 52.449219 " fill-opacity="1" fill-rule="nonzero"/><path fill="#ff967a" d="M 30.4375 27.882812 C 29.851562 28.808594 29.121094 29.617188 28.257812 30.316406 C 28.21875 30.351562 28.179688 30.382812 28.136719 30.414062 C 28.128906 30.421875 28.117188 30.429688 28.109375 30.4375 C 27.894531 30.605469 27.585938 30.558594 27.429688 30.332031 C 27.273438 30.105469 27.132812 29.875 27.015625 29.632812 C 26.910156 29.417969 26.863281 29.175781 26.863281 28.933594 L 26.863281 28.710938 C 26.839844 28.714844 26.820312 28.71875 26.796875 28.722656 C 26.785156 28.726562 26.773438 28.726562 26.757812 28.730469 C 26.753906 28.730469 26.753906 28.730469 26.753906 28.730469 C 26.378906 28.792969 26.003906 28.636719 25.78125 28.328125 C 25.035156 27.273438 24.640625 26.003906 24.355469 24.675781 C 24.527344 24.671875 24.722656 24.65625 24.949219 24.621094 C 25.765625 24.492188 26.691406 24.058594 27.464844 23.460938 C 27.488281 23.445312 27.511719 23.429688 27.53125 23.410156 L 28.136719 24.417969 L 28.257812 24.617188 L 28.683594 25.324219 L 28.816406 25.542969 L 29.1875 25.542969 L 29.1875 25.128906 C 29.1875 25.128906 29.191406 25.132812 29.191406 25.132812 C 29.246094 25.027344 29.304688 24.941406 29.371094 24.878906 C 29.386719 24.863281 29.40625 24.84375 29.425781 24.832031 C 29.4375 24.824219 29.449219 24.816406 29.460938 24.808594 C 29.472656 24.800781 29.484375 24.792969 29.496094 24.785156 C 29.519531 24.773438 29.542969 24.761719 29.5625 24.753906 C 29.566406 24.753906 29.566406 24.753906 29.566406 24.753906 C 29.585938 24.746094 29.605469 24.742188 29.625 24.738281 C 29.625 24.738281 29.628906 24.734375 29.632812 24.734375 C 29.644531 24.734375 29.65625 24.730469 29.667969 24.730469 C 29.679688 24.730469 29.691406 24.730469 29.703125 24.730469 C 29.71875 24.730469 29.734375 24.730469 29.746094 24.730469 C 29.757812 24.734375 29.769531 24.734375 29.78125 24.738281 C 29.789062 24.738281 29.792969 24.742188 29.800781 24.742188 C 29.808594 24.746094 29.820312 24.746094 29.828125 24.75 L 29.832031 24.753906 C 29.84375 24.753906 29.859375 24.761719 29.871094 24.765625 C 29.886719 24.773438 29.898438 24.78125 29.910156 24.789062 C 29.925781 24.796875 29.9375 24.804688 29.949219 24.8125 C 29.972656 24.832031 29.996094 24.851562 30.019531 24.875 C 30.164062 25.027344 30.246094 25.292969 30.191406 25.617188 C 30.148438 25.859375 30.035156 26.128906 29.8125 26.417969 C 29.773438 26.46875 29.761719 26.535156 29.792969 26.59375 Z M 25.871094 40.28125 L 25.390625 39.835938 L 25.105469 39.871094 L 23.914062 40.011719 C 23.824219 40.023438 23.738281 40.042969 23.65625 40.070312 L 23.710938 40.28125 L 23.742188 40.402344 L 24.074219 41.714844 L 24.226562 42.3125 C 24.351562 42.21875 24.476562 42.105469 24.597656 42.003906 C 24.714844 41.898438 24.867188 41.847656 25.019531 41.851562 C 25.515625 41.871094 25.945312 41.71875 26.257812 41.550781 C 26.609375 41.363281 26.820312 41.160156 26.820312 41.160156 L 26 40.402344 Z M 25.871094 40.28125 " fill-opacity="1" fill-rule="nonzero"/><g clip-path="url(#f5a0a423b3)"><path fill="#4da599" d="M 5.101562 26.394531 C 5.160156 26.273438 5.304688 26.226562 5.425781 26.28125 L 9.0625 28.015625 L 9.183594 28.074219 L 11.46875 29.164062 L 17.46875 23.1875 L 17.589844 23.066406 L 18.601562 22.058594 L 18.722656 21.941406 L 22.898438 17.78125 C 22.980469 17.699219 23.109375 17.6875 23.203125 17.753906 L 28.082031 21.042969 C 28.078125 21.042969 28.070312 21.046875 28.066406 21.046875 C 27.851562 21.078125 27.632812 21.121094 27.40625 21.167969 L 23.097656 18.261719 L 18.722656 22.621094 L 18.601562 22.742188 L 18.273438 23.066406 L 18.15625 23.1875 L 11.6875 29.625 C 11.640625 29.667969 11.582031 29.695312 11.515625 29.695312 C 11.480469 29.695312 11.445312 29.6875 11.414062 29.671875 L 9.183594 28.609375 L 9.0625 28.550781 L 5.214844 26.714844 C 5.097656 26.660156 5.042969 26.515625 5.101562 26.394531 Z M 30.21875 23.066406 L 30.398438 23.1875 L 37.675781 28.09375 L 37.796875 28.175781 L 38.742188 28.8125 C 38.835938 28.878906 38.960938 28.867188 39.042969 28.785156 L 43.28125 24.578125 L 43.28125 23.898438 L 38.84375 28.304688 L 37.796875 27.597656 L 37.675781 27.515625 L 31.257812 23.1875 L 31.078125 23.066406 L 29.898438 22.269531 C 30.003906 22.496094 30.097656 22.757812 30.171875 23.035156 Z M 47.214844 20.675781 L 47.335938 20.554688 L 50.667969 17.246094 L 56.75 22.3125 L 56.871094 22.414062 L 57.652344 23.066406 L 57.796875 23.1875 L 60.9375 25.804688 C 61.019531 25.871094 61.136719 25.878906 61.226562 25.820312 L 62.246094 25.160156 L 62.246094 24.585938 L 61.109375 25.320312 L 58.550781 23.1875 L 58.40625 23.066406 L 56.871094 21.789062 L 56.75 21.6875 L 50.808594 16.734375 C 50.714844 16.652344 50.574219 16.660156 50.484375 16.75 L 47.335938 19.875 L 47.214844 19.996094 L 44.375 22.8125 L 45.058594 22.8125 Z M 27.429688 30.332031 C 27.273438 30.105469 27.132812 29.875 27.015625 29.632812 C 26.910156 29.417969 26.863281 29.175781 26.863281 28.933594 L 26.863281 28.710938 C 26.839844 28.714844 26.820312 28.71875 26.796875 28.722656 L 26.613281 28.828125 C 25.40625 29.511719 24.398438 30.496094 23.683594 31.671875 C 23.660156 31.714844 23.636719 31.753906 23.613281 31.792969 C 23.515625 31.960938 23.425781 32.128906 23.339844 32.300781 L 21.179688 36.699219 L 21.210938 36.765625 L 22.734375 36.765625 C 22.785156 36.765625 22.828125 36.800781 22.839844 36.847656 L 23.355469 38.886719 C 23.960938 38.203125 24.492188 37.542969 24.894531 36.800781 L 25.105469 39.871094 L 25.390625 39.835938 L 25.871094 40.28125 L 26 40.402344 L 26.820312 41.160156 L 32.515625 41.160156 L 32.628906 40.402344 L 32.648438 40.28125 L 33.175781 36.804688 C 33.738281 35.734375 34.234375 34.652344 34.640625 33.558594 C 34.847656 32.992188 34.914062 32.386719 34.824219 31.792969 C 34.816406 31.753906 34.808594 31.714844 34.800781 31.671875 C 34.777344 31.535156 34.742188 31.398438 34.699219 31.265625 C 34.695312 31.253906 34.691406 31.246094 34.691406 31.238281 C 34.429688 30.441406 33.925781 29.746094 33.234375 29.269531 C 32.378906 28.675781 31.40625 28.242188 30.4375 27.882812 C 29.851562 28.808594 29.121094 29.617188 28.257812 30.316406 C 28.21875 30.351562 28.179688 30.382812 28.136719 30.414062 C 28.128906 30.421875 28.117188 30.429688 28.109375 30.4375 C 27.894531 30.605469 27.585938 30.558594 27.429688 30.332031 Z M 72.558594 65.609375 L 4.386719 65.609375 L 5.320312 65.332031 L 12.699219 63.140625 L 14.808594 62.515625 L 21.324219 60.582031 C 21.371094 60.566406 21.414062 60.539062 21.445312 60.503906 L 22.1875 59.585938 L 23.789062 57.613281 L 23.886719 57.496094 L 24.296875 56.988281 L 30.226562 49.691406 L 31.679688 49.871094 L 33.785156 50.136719 L 39.695312 50.875 C 39.789062 50.886719 39.878906 50.84375 39.929688 50.765625 L 41.160156 48.816406 L 43.269531 45.46875 L 47.867188 38.175781 L 50.644531 39.257812 L 52.761719 40.078125 L 57.40625 41.878906 C 57.488281 41.914062 57.582031 41.898438 57.652344 41.835938 L 60.132812 39.664062 L 62.242188 37.816406 L 69.617188 31.351562 L 73.726562 27.753906 L 74.316406 28.34375 C 74.425781 28.453125 74.617188 28.375 74.617188 28.21875 L 74.617188 26.707031 C 74.617188 26.613281 74.535156 26.535156 74.441406 26.535156 L 72.925781 26.535156 C 72.769531 26.535156 72.695312 26.722656 72.804688 26.832031 L 73.382812 27.410156 L 69.617188 30.710938 L 62.242188 37.175781 L 60.132812 39.023438 L 57.441406 41.378906 L 52.761719 39.5625 L 50.648438 38.742188 L 47.855469 37.65625 C 47.75 37.613281 47.625 37.65625 47.5625 37.753906 L 43.269531 44.5625 L 41.160156 47.90625 L 41.160156 47.910156 L 39.601562 50.378906 L 33.785156 49.648438 L 31.679688 49.386719 L 30.152344 49.195312 C 30.070312 49.1875 29.988281 49.21875 29.933594 49.28125 L 24.300781 56.222656 L 23.265625 57.496094 L 23.167969 57.613281 L 22.191406 58.816406 L 21.117188 60.140625 L 14.808594 61.988281 L 12.703125 62.605469 L 5.324219 64.765625 L 2.445312 65.609375 L 0.0273438 69.675781 L 74.972656 69.675781 Z M 72.558594 65.609375 " fill-opacity="1" fill-rule="nonzero"/></g><path fill="#321a2a" d="M 25.949219 26.863281 L 25.949219 26.871094 C 25.945312 26.945312 25.972656 27.019531 26.023438 27.074219 C 26.074219 27.128906 26.148438 27.160156 26.226562 27.15625 C 26.308594 27.152344 26.402344 27.132812 26.492188 27.105469 C 26.578125 27.078125 26.664062 27.039062 26.75 26.996094 C 26.761719 26.992188 26.769531 26.996094 26.777344 27.003906 C 26.777344 27.011719 26.777344 27.019531 26.769531 27.027344 C 26.699219 27.09375 26.613281 27.144531 26.527344 27.191406 C 26.4375 27.234375 26.34375 27.269531 26.238281 27.285156 C 26.121094 27.304688 26 27.261719 25.917969 27.179688 C 25.828125 27.101562 25.785156 26.980469 25.789062 26.863281 L 25.789062 26.871094 C 25.773438 26.453125 25.769531 26.039062 25.800781 25.621094 C 25.800781 25.609375 25.8125 25.597656 25.824219 25.601562 C 25.835938 25.601562 25.84375 25.609375 25.84375 25.617188 C 25.910156 26.03125 25.933594 26.449219 25.949219 26.863281 Z M 27.492188 25.679688 C 27.382812 25.710938 27.324219 25.84375 27.359375 25.980469 C 27.394531 26.113281 27.507812 26.199219 27.617188 26.171875 C 27.726562 26.140625 27.789062 26.007812 27.753906 25.875 C 27.71875 25.738281 27.601562 25.652344 27.492188 25.679688 Z M 25.316406 26.734375 C 25.40625 26.707031 25.449219 26.582031 25.417969 26.453125 C 25.382812 26.324219 25.285156 26.238281 25.195312 26.265625 C 25.105469 26.292969 25.058594 26.417969 25.09375 26.546875 C 25.125 26.675781 25.226562 26.757812 25.316406 26.734375 Z M 26.890625 27.816406 C 27.03125 27.761719 27.140625 27.640625 27.160156 27.496094 C 27.035156 27.566406 26.941406 27.628906 26.835938 27.667969 C 26.730469 27.707031 26.617188 27.722656 26.476562 27.757812 C 26.589844 27.847656 26.75 27.867188 26.890625 27.816406 Z M 27.425781 25.113281 C 27.3125 25.128906 27.207031 25.203125 27.179688 25.320312 C 27.292969 25.300781 27.367188 25.28125 27.449219 25.273438 C 27.53125 25.257812 27.609375 25.253906 27.722656 25.230469 C 27.65625 25.132812 27.535156 25.097656 27.425781 25.113281 Z M 24.933594 25.820312 C 24.847656 25.847656 24.769531 25.925781 24.773438 26.03125 C 24.871094 26.007812 24.925781 25.992188 24.988281 25.96875 C 25.046875 25.949219 25.105469 25.925781 25.191406 25.878906 C 25.128906 25.800781 25.023438 25.789062 24.933594 25.820312 Z M 24.070312 23.1875 L 23.75 23.46875 C 23.175781 23.9375 23.261719 24.472656 23.660156 24.59375 C 23.835938 24.648438 24.058594 24.683594 24.355469 24.675781 C 24.527344 24.671875 24.722656 24.65625 24.949219 24.621094 C 25.765625 24.492188 26.691406 24.058594 27.464844 23.460938 C 27.488281 23.445312 27.511719 23.429688 27.53125 23.410156 L 28.136719 24.417969 L 28.257812 24.617188 L 28.683594 25.324219 L 28.816406 25.542969 L 29.1875 25.542969 L 29.1875 25.34375 C 29.191406 25.171875 29.25 25 29.371094 24.878906 C 29.386719 24.863281 29.40625 24.84375 29.425781 24.832031 C 29.4375 24.824219 29.449219 24.816406 29.460938 24.808594 C 29.472656 24.800781 29.484375 24.792969 29.496094 24.785156 C 29.519531 24.773438 29.542969 24.761719 29.5625 24.753906 C 29.566406 24.753906 29.566406 24.753906 29.566406 24.753906 C 29.585938 24.746094 29.605469 24.742188 29.625 24.738281 C 29.625 24.738281 29.628906 24.734375 29.632812 24.734375 C 29.644531 24.734375 29.65625 24.730469 29.667969 24.730469 C 29.679688 24.730469 29.691406 24.730469 29.703125 24.730469 C 29.730469 24.730469 29.757812 24.734375 29.78125 24.738281 C 29.789062 24.738281 29.792969 24.742188 29.800781 24.742188 C 29.808594 24.746094 29.820312 24.746094 29.832031 24.753906 C 29.859375 24.761719 29.882812 24.773438 29.910156 24.789062 C 29.921875 24.796875 29.933594 24.804688 29.949219 24.8125 C 29.972656 24.832031 29.996094 24.851562 30.019531 24.875 C 30.164062 25.027344 30.246094 25.292969 30.191406 25.617188 C 30.457031 25.070312 30.429688 24.070312 30.210938 23.1875 C 30.203125 23.144531 30.191406 23.105469 30.179688 23.066406 C 30.179688 23.054688 30.175781 23.046875 30.171875 23.035156 C 30.097656 22.757812 30.003906 22.496094 29.898438 22.269531 L 29.894531 22.269531 C 29.785156 22.035156 29.660156 21.835938 29.519531 21.695312 C 29.164062 21.328125 28.746094 21.035156 28.257812 21.03125 C 28.21875 21.03125 28.179688 21.03125 28.136719 21.039062 C 28.117188 21.039062 28.101562 21.039062 28.082031 21.042969 C 28.078125 21.042969 28.070312 21.046875 28.066406 21.046875 C 27.851562 21.078125 27.632812 21.121094 27.40625 21.167969 C 26 21.46875 24.386719 22.070312 23.589844 22.621094 C 23.484375 22.691406 23.503906 22.855469 23.625 22.894531 C 23.847656 22.96875 24.082031 22.980469 24.324219 22.960938 L 24.207031 23.066406 Z M 30.726562 39.792969 C 31.359375 39.488281 31.910156 39.019531 32.3125 38.445312 C 32.519531 38.160156 32.660156 37.84375 32.824219 37.539062 C 32.980469 37.234375 33.136719 36.925781 33.277344 36.613281 C 33.089844 36.902344 32.914062 37.195312 32.738281 37.492188 C 32.5625 37.789062 32.40625 38.097656 32.203125 38.367188 C 31.808594 38.917969 31.273438 39.363281 30.65625 39.648438 C 30.035156 39.9375 29.402344 40.207031 28.757812 40.445312 C 28.125 40.679688 27.484375 40.894531 26.835938 41.078125 L 25.480469 39.839844 L 29.371094 36.4375 C 29.699219 36.136719 29.960938 35.765625 30.136719 35.355469 L 30.65625 34.15625 L 31.171875 32.957031 L 31.429688 32.355469 C 31.511719 32.15625 31.597656 31.953125 31.660156 31.742188 C 31.660156 31.742188 31.660156 31.738281 31.65625 31.738281 C 31.652344 31.734375 31.652344 31.738281 31.648438 31.738281 C 31.535156 31.929688 31.445312 32.125 31.355469 32.324219 L 31.089844 32.921875 L 30.554688 34.113281 C 30.175781 34.894531 29.949219 35.777344 29.285156 36.34375 L 27.316406 38.066406 L 25.351562 39.792969 L 25.347656 39.796875 C 25.328125 39.820312 25.328125 39.859375 25.351562 39.878906 L 25.351562 39.882812 L 26.765625 41.207031 C 26.683594 41.28125 26.503906 41.417969 26.257812 41.550781 L 27.8125 41.53125 C 27.859375 41.53125 27.875 41.59375 27.832031 41.613281 L 24.515625 43.117188 C 24.5 43.125 24.484375 43.128906 24.464844 43.136719 C 24.449219 43.140625 24.433594 43.144531 24.417969 43.148438 C 24.339844 42.726562 24.246094 42.308594 24.152344 41.890625 C 24.132812 41.789062 24.105469 41.691406 24.082031 41.589844 C 24.085938 41.585938 24.089844 41.585938 24.089844 41.582031 C 24.148438 41.519531 24.207031 41.441406 24.261719 41.382812 C 24.316406 41.324219 24.378906 41.269531 24.449219 41.226562 C 24.519531 41.183594 24.601562 41.132812 24.671875 41.074219 C 24.675781 41.074219 24.675781 41.070312 24.675781 41.066406 C 24.675781 41.0625 24.667969 41.058594 24.664062 41.058594 C 24.574219 41.078125 24.488281 41.101562 24.402344 41.136719 C 24.3125 41.175781 24.234375 41.234375 24.171875 41.304688 C 24.125 41.359375 24.089844 41.414062 24.054688 41.46875 C 24.007812 41.269531 23.960938 41.070312 23.914062 40.875 C 24.042969 40.769531 24.1875 40.679688 24.347656 40.617188 C 24.347656 40.613281 24.351562 40.613281 24.351562 40.609375 C 24.347656 40.605469 24.347656 40.605469 24.34375 40.605469 C 24.183594 40.632812 24.03125 40.699219 23.894531 40.785156 C 23.882812 40.734375 23.871094 40.6875 23.859375 40.636719 C 23.75 40.222656 23.648438 39.804688 23.535156 39.390625 C 23.421875 38.976562 23.308594 38.5625 23.183594 38.152344 C 23.261719 38.574219 23.351562 38.996094 23.445312 39.414062 C 23.539062 39.832031 23.644531 40.25 23.742188 40.667969 C 23.847656 41.082031 23.953125 41.5 24.0625 41.914062 C 24.175781 42.328125 24.289062 42.738281 24.417969 43.148438 C 24.398438 43.152344 24.375 43.152344 24.355469 43.152344 L 17.550781 43.152344 L 16.5625 43.597656 C 15.851562 43.914062 15.328125 44.53125 15.125 45.28125 L 14.152344 48.886719 L 14.117188 49.007812 L 12.320312 55.65625 L 12.835938 55.707031 L 14.820312 55.898438 L 14.839844 55.902344 L 14.84375 55.902344 C 14.910156 55.6875 14.976562 55.472656 15.042969 55.257812 C 15.109375 55.042969 15.179688 54.828125 15.246094 54.613281 C 15.382812 54.183594 15.519531 53.753906 15.65625 53.328125 L 16.175781 51.726562 L 16.746094 49.964844 C 16.851562 49.648438 16.957031 49.328125 17.066406 49.007812 C 17.078125 48.96875 17.089844 48.925781 17.105469 48.886719 C 17.355469 48.128906 17.605469 47.371094 17.867188 46.617188 L 18.152344 45.78125 C 18.238281 45.496094 18.375 45.21875 18.554688 44.980469 C 18.570312 44.960938 18.585938 44.941406 18.601562 44.921875 C 18.621094 44.898438 18.640625 44.875 18.660156 44.847656 C 18.679688 44.824219 18.699219 44.800781 18.722656 44.78125 C 18.726562 44.773438 18.730469 44.769531 18.738281 44.765625 C 18.769531 44.726562 18.800781 44.695312 18.835938 44.664062 C 18.875 44.628906 18.914062 44.59375 18.957031 44.558594 C 18.992188 44.53125 19.03125 44.5 19.066406 44.472656 C 19.074219 44.464844 19.085938 44.457031 19.09375 44.453125 C 19.132812 44.425781 19.171875 44.398438 19.214844 44.371094 C 19.457031 44.203125 19.703125 44.042969 19.957031 43.890625 C 19.730469 44.082031 19.5 44.261719 19.261719 44.441406 C 19.214844 44.476562 19.167969 44.511719 19.121094 44.550781 C 19.117188 44.550781 19.117188 44.554688 19.113281 44.558594 C 19.066406 44.59375 19.019531 44.636719 18.972656 44.675781 C 18.929688 44.71875 18.882812 44.761719 18.84375 44.808594 C 18.800781 44.855469 18.757812 44.898438 18.722656 44.949219 C 18.695312 44.980469 18.671875 45.011719 18.648438 45.042969 C 18.632812 45.066406 18.613281 45.089844 18.601562 45.113281 C 18.457031 45.332031 18.347656 45.570312 18.277344 45.824219 L 18.007812 46.664062 C 17.765625 47.40625 17.519531 48.144531 17.273438 48.886719 C 17.261719 48.925781 17.246094 48.96875 17.230469 49.007812 C 17.121094 49.34375 17.007812 49.679688 16.898438 50.015625 L 16.316406 51.726562 L 15.757812 53.359375 C 15.570312 53.90625 15.382812 54.449219 15.191406 54.992188 C 15.070312 55.34375 14.945312 55.695312 14.820312 56.046875 C 14.753906 56.242188 14.683594 56.4375 14.617188 56.628906 C 14.613281 56.640625 14.609375 56.648438 14.605469 56.660156 C 14.605469 56.664062 14.601562 56.667969 14.601562 56.671875 C 14.597656 56.679688 14.597656 56.6875 14.59375 56.695312 C 14.570312 56.769531 14.546875 56.835938 14.527344 56.898438 C 14.515625 56.921875 14.511719 56.941406 14.503906 56.960938 C 14.46875 57.0625 14.441406 57.144531 14.421875 57.214844 C 14.414062 57.238281 14.40625 57.257812 14.398438 57.277344 C 14.394531 57.296875 14.390625 57.3125 14.386719 57.324219 C 14.378906 57.34375 14.375 57.359375 14.371094 57.375 C 14.367188 57.378906 14.363281 57.386719 14.363281 57.394531 C 14.355469 57.414062 14.351562 57.425781 14.347656 57.433594 C 14.347656 57.4375 14.347656 57.4375 14.347656 57.4375 C 14.351562 57.421875 14.367188 57.382812 14.386719 57.324219 C 14.105469 57.523438 13.804688 57.691406 13.488281 57.8125 C 13.398438 57.855469 13.300781 57.878906 13.203125 57.914062 C 13.109375 57.945312 13.007812 57.964844 12.910156 57.988281 C 12.8125 58.007812 12.714844 58.023438 12.613281 58.039062 C 12.511719 58.046875 12.414062 58.058594 12.3125 58.058594 C 12.109375 58.058594 11.90625 58.050781 11.707031 58.003906 C 11.605469 57.988281 11.507812 57.957031 11.410156 57.925781 C 11.308594 57.898438 11.226562 57.839844 11.121094 57.820312 C 11.160156 57.855469 11.207031 57.875 11.253906 57.902344 C 11.296875 57.925781 11.34375 57.949219 11.394531 57.96875 C 11.488281 58.007812 11.589844 58.046875 11.691406 58.074219 C 11.890625 58.136719 12.101562 58.160156 12.308594 58.175781 C 12.734375 58.203125 13.15625 58.117188 13.546875 57.964844 C 13.855469 57.839844 14.144531 57.675781 14.402344 57.476562 C 14.425781 57.484375 14.457031 57.488281 14.496094 57.496094 C 14.535156 57.5 14.578125 57.503906 14.625 57.511719 C 14.679688 57.519531 14.746094 57.523438 14.816406 57.53125 C 14.914062 57.542969 15.023438 57.550781 15.144531 57.558594 C 15.203125 57.558594 15.261719 57.566406 15.320312 57.566406 C 15.382812 57.570312 15.445312 57.574219 15.511719 57.578125 C 15.640625 57.585938 15.773438 57.59375 15.914062 57.597656 C 15.96875 57.601562 16.027344 57.605469 16.085938 57.605469 C 16.144531 57.609375 16.203125 57.613281 16.261719 57.613281 C 16.890625 57.640625 17.570312 57.660156 18.128906 57.675781 C 17.925781 58.035156 17.617188 58.320312 17.277344 58.539062 C 17.171875 58.609375 17.058594 58.675781 16.941406 58.726562 C 16.820312 58.769531 16.691406 58.84375 16.585938 58.929688 C 16.382812 59.113281 16.199219 59.292969 16.003906 59.472656 C 15.90625 59.5625 15.816406 59.65625 15.714844 59.738281 C 15.617188 59.816406 15.511719 59.890625 15.402344 59.957031 C 15.183594 60.085938 14.945312 60.1875 14.695312 60.242188 C 14.445312 60.296875 14.183594 60.3125 13.925781 60.289062 C 13.796875 60.28125 13.667969 60.253906 13.546875 60.21875 C 13.417969 60.183594 13.300781 60.132812 13.179688 60.082031 C 13.273438 60.179688 13.402344 60.230469 13.527344 60.277344 C 13.652344 60.320312 13.785156 60.351562 13.914062 60.371094 C 14.183594 60.410156 14.453125 60.410156 14.722656 60.367188 C 14.988281 60.320312 15.246094 60.226562 15.484375 60.089844 C 15.71875 59.957031 15.933594 59.773438 16.113281 59.585938 C 16.300781 59.402344 16.488281 59.210938 16.671875 59.035156 C 16.769531 58.953125 16.871094 58.894531 16.996094 58.839844 C 17.117188 58.777344 17.230469 58.707031 17.339844 58.625 C 17.683594 58.382812 17.992188 58.0625 18.164062 57.679688 C 18.292969 57.683594 18.414062 57.6875 18.527344 57.6875 C 18.550781 57.6875 18.578125 57.691406 18.601562 57.691406 C 18.640625 57.691406 18.683594 57.695312 18.722656 57.695312 C 19.101562 57.703125 19.347656 57.707031 19.347656 57.707031 L 19.390625 57.613281 L 19.445312 57.496094 L 22.050781 51.726562 L 23.28125 49.007812 L 23.335938 48.886719 L 23.582031 48.335938 C 23.699219 48.082031 23.933594 47.902344 24.210938 47.847656 C 24.242188 47.84375 24.277344 47.835938 24.308594 47.828125 C 25.636719 47.578125 26.917969 47.277344 28.136719 46.910156 C 28.179688 46.898438 28.21875 46.886719 28.257812 46.875 C 29.425781 46.519531 30.535156 46.101562 31.574219 45.609375 C 31.613281 45.59375 31.648438 45.574219 31.683594 45.550781 C 31.988281 45.378906 32.21875 45.101562 32.34375 44.773438 C 32.761719 43.644531 32.863281 42.449219 32.515625 41.160156 L 27.082031 41.160156 C 27.664062 40.992188 28.246094 40.8125 28.816406 40.601562 C 29.464844 40.359375 30.105469 40.09375 30.726562 39.792969 Z M 24.78125 33.800781 L 24.699219 32.882812 C 24.667969 32.578125 24.640625 32.273438 24.601562 31.96875 C 24.605469 32.273438 24.617188 32.582031 24.621094 32.890625 L 24.65625 33.808594 C 24.683594 34.421875 24.722656 35.035156 24.753906 35.648438 C 24.800781 36.261719 24.839844 36.875 24.890625 37.488281 C 24.941406 38.097656 24.996094 38.710938 25.066406 39.320312 C 25.0625 38.707031 25.039062 38.09375 25.011719 37.480469 C 24.988281 36.863281 24.949219 36.253906 24.914062 35.640625 C 24.871094 35.027344 24.832031 34.414062 24.78125 33.800781 Z M 28.226562 28.386719 C 28.339844 28.324219 28.449219 28.246094 28.542969 28.160156 C 28.640625 28.070312 28.722656 27.980469 28.808594 27.886719 C 28.976562 27.699219 29.128906 27.496094 29.257812 27.277344 C 29.078125 27.457031 28.898438 27.628906 28.71875 27.796875 C 28.535156 27.96875 28.363281 28.136719 28.148438 28.246094 C 28.046875 28.304688 27.9375 28.347656 27.820312 28.390625 C 27.703125 28.433594 27.585938 28.46875 27.46875 28.511719 C 27.234375 28.585938 26.996094 28.660156 26.753906 28.730469 C 27.003906 28.71875 27.253906 28.6875 27.5 28.628906 C 27.746094 28.570312 27.992188 28.511719 28.226562 28.386719 Z M 28.226562 28.386719 " fill-opacity="1" fill-rule="nonzero"/></svg>